<svg width="549" height="303" viewBox="0 0 549 303" fill="none" xmlns="http://www.w3.org/2000/svg">
<g filter="url(#filter0_i_334_3)">
<rect x="14.8234" width="534" height="290" rx="31" fill="#E7000B"/>
</g>
<g filter="url(#filter1_d_334_3)">
<path d="M270.362 89.8443L305.545 111.172C305.545 111.172 310.784 94.4357 320.273 84.9227C330.91 74.2591 345.638 70.1577 345.638 70.1577H474.916L500.281 41.448H462.643V28.3236H513.372V95.5863H532.191L530.554 15.1992H361.184L270.362 89.8443Z" fill="black"/>
<path d="M479.825 116.913H316.182L356.275 143.162L312.091 171.872H428.278L479.825 116.913Z" fill="black"/>
<path d="M340.729 215.347C316.123 205.591 309.558 196.049 305.545 175.973L253.998 207.144C272.45 247.777 291.593 261.915 340.729 274.406L532.191 272.766V194.019H513.372V259.641H462.643V244.876H500.281L473.279 215.347H340.729Z" fill="black"/>
<path d="M270.362 89.8443L305.545 111.172C305.545 111.172 310.784 94.4357 320.273 84.9227C330.91 74.2591 345.638 70.1577 345.638 70.1577H474.916L500.281 41.448H462.643V28.3236H513.372V95.5863H532.191L530.554 15.1992H361.184L270.362 89.8443Z" stroke="black" stroke-width="2"/>
<path d="M479.825 116.913H316.182L356.275 143.162L312.091 171.872H428.278L479.825 116.913Z" stroke="black" stroke-width="2"/>
<path d="M340.729 215.347C316.123 205.591 309.558 196.049 305.545 175.973L253.998 207.144C272.45 247.777 291.593 261.915 340.729 274.406L532.191 272.766V194.019H513.372V259.641H462.643V244.876H500.281L473.279 215.347H340.729Z" stroke="black" stroke-width="2"/>
<path d="M132.287 65.7496V97.3672L175.308 65.7496H279.207L346.58 9H30.8234L81.1495 65.7496H132.287Z" fill="black"/>
<path d="M188.296 69.8031L132.287 110.339V281.398L188.296 231.134V69.8031Z" fill="black"/>
<path d="M132.287 65.7496V97.3672L175.308 65.7496H279.207L346.58 9H30.8234L81.1495 65.7496H132.287Z" stroke="black" stroke-width="2"/>
<path d="M188.296 69.8031L132.287 110.339V281.398L188.296 231.134V69.8031Z" stroke="black" stroke-width="2"/>
<path d="M257.21 109.899L307.579 138.528L317.247 144.023L307.715 149.75L257.345 180.015L247.498 185.932V104.379L257.21 109.899Z" stroke="black" stroke-width="13"/>
</g>
<defs>
<filter id="filter0_i_334_3" x="14.8234" y="0" width="534" height="290" filterUnits="userSpaceOnUse" color-interpolation-filters="sRGB">
<feFlood flood-opacity="0" result="BackgroundImageFix"/>
<feBlend mode="normal" in="SourceGraphic" in2="BackgroundImageFix" result="shape"/>
<feColorMatrix in="SourceAlpha" type="matrix" values="0 0 0 0 0 0 0 0 0 0 0 0 0 0 0 0 0 0 127 0" result="hardAlpha"/>
<feMorphology radius="2" operator="dilate" in="SourceAlpha" result="effect1_innerShadow_334_3"/>
<feOffset/>
<feGaussianBlur stdDeviation="11.85"/>
<feComposite in2="hardAlpha" operator="arithmetic" k2="-1" k3="1"/>
<feColorMatrix type="matrix" values="0 0 0 0 0 0 0 0 0 0 0 0 0 0 0 0 0 0 1 0"/>
<feBlend mode="normal" in2="shape" result="effect1_innerShadow_334_3"/>
</filter>
<filter id="filter1_d_334_3" x="-2.47955e-05" y="1.4" width="533.211" height="300.839" filterUnits="userSpaceOnUse" color-interpolation-filters="sRGB">
<feFlood flood-opacity="0" result="BackgroundImageFix"/>
<feColorMatrix in="SourceAlpha" type="matrix" values="0 0 0 0 0 0 0 0 0 0 0 0 0 0 0 0 0 0 127 0" result="hardAlpha"/>
<feOffset dx="-16" dy="6"/>
<feGaussianBlur stdDeviation="6.3"/>
<feComposite in2="hardAlpha" operator="out"/>
<feColorMatrix type="matrix" values="0 0 0 0 0 0 0 0 0 0 0 0 0 0 0 0 0 0 0.8 0"/>
<feBlend mode="normal" in2="BackgroundImageFix" result="effect1_dropShadow_334_3"/>
<feBlend mode="normal" in="SourceGraphic" in2="effect1_dropShadow_334_3" result="shape"/>
</filter>
</defs>
</svg>
